HIERARCHY
ROOT Hips
{
	OFFSET -0.179506 -22.333345 2.821913
	CHANNELS 6 Xposition Yposition Zposition Zrotation Yrotation Xrotation 
	JOINT LeftUpLeg
	{
		OFFSET 6.951974 -9.140623 -0.681533
		CHANNELS 3 Zrotation Yrotation Xrotation
		JOINT LeftLeg
		{
			OFFSET 3.427654 -37.519855 -0.449580
			CHANNELS 3 Zrotation Yrotation Xrotation
			JOINT LeftFoot
			{
				OFFSET -1.359570 -39.796059 -4.369333
				CHANNELS 3 Zrotation Yrotation Xrotation
				JOINT LeftToe
				{
					OFFSET 2.635814 -5.579078 11.928840
					CHANNELS 3 Zrotation Yrotation Xrotation
					End Site
					{
						OFFSET 0.000000 0.000000 0.000000
					}
				}
			}
		}
	}
	JOINT RightUpLeg
	{
		OFFSET -6.767048 -9.052170 -0.431982
		CHANNELS 3 Zrotation Yrotation Xrotation
		JOINT RightLeg
		{
			OFFSET -3.829005 -38.256897 -0.885003
			CHANNELS 3 Zrotation Yrotation Xrotation
			JOINT RightFoot
			{
				OFFSET 1.577377 -39.841461 -4.231180
				CHANNELS 3 Zrotation Yrotation Xrotation
				JOINT RightToe
				{
					OFFSET -2.537174 -4.814398 12.334795
					CHANNELS 3 Zrotation Yrotation Xrotation
					End Site
					{
						OFFSET 0.000000 0.000000 0.000000
					}
				}
			}
		}
	}
	JOINT Spine
	{
		OFFSET -0.253288 10.896323 -2.669631
		CHANNELS 3 Zrotation Yrotation Xrotation
		JOINT Spine1
		{
			OFFSET 0.548704 13.518043 0.109247
			CHANNELS 3 Zrotation Yrotation Xrotation
			JOINT Spine2
			{
				OFFSET 0.145701 5.292222 2.542457
				CHANNELS 3 Zrotation Yrotation Xrotation
				JOINT Neck
				{
					OFFSET -0.277840 21.387037 -4.285703
					CHANNELS 3 Zrotation Yrotation Xrotation
					JOINT Head
					{
						OFFSET 0.515184 6.496960 5.134897
						CHANNELS 3 Zrotation Yrotation Xrotation
						End Site
						{
							OFFSET 0.000000 0.000000 0.000000
						}
					}
				}
				JOINT LeftShoulder
				{
					OFFSET 7.884473 12.174932 -3.408961
					CHANNELS 3 Zrotation Yrotation Xrotation
					JOINT LeftArm
					{
						OFFSET 9.097692 3.046888 -0.886815
						CHANNELS 3 Zrotation Yrotation Xrotation
						JOINT LeftForeArm
						{
							OFFSET 25.961220 -1.277207 -2.745643
							CHANNELS 3 Zrotation Yrotation Xrotation
							JOINT LeftHand
							{
								OFFSET 24.923361 0.898606 -0.117091
								CHANNELS 3 Zrotation Yrotation Xrotation
								End Site
								{
									OFFSET 0.000000 0.000000 0.000000
								}
							}
						}
					}
				}
				JOINT RightShoulder
				{
					OFFSET -8.175920 11.883285 -3.861528
					CHANNELS 3 Zrotation Yrotation Xrotation
					JOINT RightArm
					{
						OFFSET -9.601238 3.255117 -0.914307
						CHANNELS 3 Zrotation Yrotation Xrotation
						JOINT RightForeArm
						{
							OFFSET -25.374195 -1.332924 -2.140099
							CHANNELS 3 Zrotation Yrotation Xrotation
							JOINT RightHand
							{
								OFFSET -25.529810 0.777228 -0.555919
								CHANNELS 3 Zrotation Yrotation Xrotation
								End Site
								{
									OFFSET 0.000000 0.000000 0.000000
								}
							}
						}
					}
				}
			}
		}
	}
}
MOTION
Frames: 10
Frame Time: 0.033333
-2.010513 -11.933654 99.031464 -176.899053 -4.980272 83.728496 1.016995 1.189852 12.728581 -3.918225 -5.248134 -2.526354 1.967596 8.007534 -8.780982 nan nan nan -6.904699 -2.067420 15.531217 5.112650 -1.964613 -6.155226 5.066388 -4.443563 -5.369396 nan nan nan 8.341368 -0.952552 1.898121 2.768313 -3.981825 6.222863 1.424709 -1.114862 0.839563 -3.351438 -0.810375 4.203087 2.469175 -2.057182 -2.006195 -28.532353 -0.368212 7.924538 -62.947963 -6.949035 8.195207 10.190589 -22.165769 5.414332 -7.276072 -15.723990 -6.430676 23.045737 6.817796 6.920640 55.432002 4.347254 9.794290 -10.973971 16.622245 -6.521077 3.756922 10.121210 -11.920259 
-1.976599 -11.967566 99.018585 -176.801347 -5.049379 83.802677 0.999491 1.541132 12.467864 -3.831459 -5.507359 -2.297744 1.857419 7.815900 -8.846949 nan nan nan -6.946368 -2.122937 15.419538 5.047944 -1.985463 -6.104826 5.026503 -4.328429 -5.520587 nan nan nan 8.368309 -1.047185 1.788940 2.821346 -4.017148 6.314609 1.417811 -1.105462 0.758749 -3.362810 -0.771257 4.186853 2.472785 -2.009375 -2.098827 -28.477583 -0.355617 7.842765 -63.022822 -6.935855 8.312412 10.190868 -22.108597 5.286298 -7.264976 -15.681150 -6.362185 23.110878 6.861274 6.902702 55.309383 4.328165 9.725665 -10.902515 16.603653 -6.675093 3.703401 10.140887 -11.890047 
-1.956501 -12.014136 99.004074 -176.611370 -5.096161 83.909537 1.007757 2.064663 12.067178 -3.699536 -5.832783 -1.916684 1.672150 7.541407 -8.973817 nan nan nan -6.980127 -2.209655 15.278435 5.068698 -2.133718 -6.074826 4.967114 -4.295424 -5.516144 nan nan nan 8.407152 -1.177386 1.606217 2.907557 -4.058109 6.341563 1.404008 -1.087373 0.760454 -3.360636 -0.774018 4.173283 2.479063 -2.033592 -2.189440 -28.433393 -0.365058 7.792023 -63.103248 -7.003676 8.426767 10.178657 -21.982723 5.226333 -7.245243 -15.578122 -6.343295 23.091373 6.864247 6.846690 55.217801 4.350829 9.655527 -10.772034 16.524591 -6.680746 3.683821 10.096491 -11.804735 
-1.942707 -12.022528 98.991699 -176.538457 -5.130809 83.932308 1.030924 2.316297 11.892077 -3.694484 -5.944017 -1.695839 1.562671 7.369636 -9.001738 nan nan nan -7.052559 -2.264515 15.272354 5.186574 -2.249700 -6.121206 4.957680 -4.315103 -5.314296 nan nan nan 8.506847 -1.212888 1.495373 2.967603 -4.037080 6.364711 1.421953 -1.136760 0.819476 -3.325752 -0.845656 4.164423 2.400890 -2.040970 -2.326726 -28.446698 -0.352657 7.827665 -63.198904 -7.091403 8.383186 10.248524 -22.006162 5.137990 -7.231064 -15.401794 -6.267149 22.984025 6.806286 6.763749 55.215654 4.411924 9.594845 -10.754598 16.449037 -6.542189 3.761845 10.038073 -11.451430 
-1.922424 -12.008734 98.979027 -176.561557 -5.151092 83.884920 1.042052 2.325817 11.922514 -3.723751 -5.930988 -1.635568 1.631478 7.347567 -8.991852 nan nan nan -7.108472 -2.297243 15.335355 5.265609 -2.198240 -6.144689 4.923986 -4.324113 -5.271586 nan nan nan 8.685695 -1.204161 1.522686 2.975762 -3.982222 6.363866 1.411140 -1.164752 0.811672 -3.295173 -0.969005 4.159007 2.303942 -1.996008 -2.355695 -28.469214 -0.392462 7.926494 -63.251730 -7.084447 8.325759 10.318701 -22.148755 5.045963 -7.203275 -15.314626 -6.278650 22.892352 6.766511 6.726757 55.299931 4.408793 9.555937 -10.877387 16.362423 -6.499462 3.833410 9.918082 -11.344356 
-1.895697 -12.003188 98.962090 -176.582341 -5.179406 83.862649 1.069565 2.340973 11.893130 -3.801678 -5.933262 -1.507602 1.719201 7.356039 -9.028405 nan nan nan -7.144628 -2.322689 15.375069 5.289313 -2.099705 -6.158668 4.882968 -4.348831 -5.302017 nan nan nan 8.866404 -1.209015 1.509169 2.984564 -3.921434 6.378471 1.353158 -1.123823 0.813106 -3.255009 -1.057623 3.993458 2.231210 -1.995111 -2.133911 -28.438948 -0.445530 8.011167 -63.248302 -7.110533 8.339480 10.234183 -22.267500 5.189737 -7.027815 -15.334945 -6.460271 22.827962 6.701487 6.729123 55.340540 4.365221 9.547595 -10.921470 16.401996 -6.503042 3.660698 9.855421 -11.589064 
-1.876083 -11.998116 98.950424 -176.593806 -5.195651 83.849385 1.129063 2.323026 11.869304 -3.935244 -5.931801 -1.414139 1.732100 7.355597 -9.085698 nan nan nan -7.167849 -2.343177 15.388376 5.300399 -2.056371 -6.145236 4.877693 -4.344301 -5.340565 nan nan nan 9.037738 -1.314729 1.531611 3.036413 -3.922536 6.235325 1.278311 -1.067642 0.902103 -3.239823 -0.977194 3.912446 2.208272 -1.921428 -1.932016 -28.417515 -0.367259 7.978539 -63.264233 -7.083337 8.388522 10.112624 -22.347800 5.459210 -6.889321 -15.434824 -6.632256 22.790326 6.659150 6.724044 55.241030 4.361272 9.626346 -10.802464 16.435006 -6.433165 3.506144 9.795620 -11.742084 
-1.855956 -11.993017 98.947548 -176.636226 -5.235395 83.852490 1.133093 2.299802 11.843643 -4.014425 -5.862488 -1.360198 1.702822 7.370341 -9.111455 nan nan nan -7.210548 -2.308835 15.395184 5.318267 -2.063708 -6.150306 4.925142 -4.325909 -5.315613 nan nan nan 9.161261 -1.441915 1.493957 3.066371 -3.938046 6.175799 1.290625 -0.994897 0.975688 -3.216165 -0.964553 3.859881 2.121433 -1.823753 -1.818711 -28.499853 -0.260278 7.905845 -63.254294 -7.091845 8.381052 10.016263 -22.339819 5.610628 -6.903477 -15.714981 -6.604289 22.740863 6.689324 6.806207 55.110702 4.380715 9.666890 -10.724301 16.496235 -6.385023 3.343910 9.727795 -11.697410 
-1.818365 -11.945643 98.946030 -176.755800 -5.270280 83.774244 1.102059 2.135984 12.041868 -4.047110 -5.682381 -1.483000 1.707256 7.491627 -9.142009 nan nan nan -7.223449 -2.295150 15.553007 5.260502 -1.969522 -6.236206 4.950660 -4.310073 -5.280238 nan nan nan 9.285848 -1.398830 1.679076 3.093349 -3.906623 5.876722 1.345051 -1.000394 1.083973 -3.189531 -0.992439 3.861086 2.029384 -1.818259 -1.754403 -28.513281 -0.193534 7.984615 -63.291738 -7.062488 8.311607 9.896821 -22.455083 5.817664 -6.955791 -16.039509 -6.620322 22.606093 6.621209 6.827314 55.149653 4.288991 9.690891 -10.771682 16.539641 -6.273583 3.299526 9.797021 -11.704468 
-1.760169 -11.872768 98.927620 -176.990992 -5.266035 83.763083 1.115997 1.703383 12.289640 -4.184218 -5.288259 -1.751842 1.822204 7.724441 -9.105148 nan nan nan -7.243656 -2.518970 15.647045 5.161588 -1.605793 -6.308896 5.016782 -4.190328 -5.318800 nan nan nan 9.537010 -1.155400 2.122073 3.095810 -3.825507 4.922129 1.349476 -1.131721 1.373278 -3.145994 -0.904531 3.938944 1.928732 -1.911793 -1.549505 -28.366570 0.028273 8.075931 -63.513352 -6.871896 8.350981 9.897723 -22.566034 6.133168 -6.933076 -16.335434 -6.791964 22.405646 6.369906 6.702052 55.338269 4.067021 9.905469 -10.852239 16.546315 -6.038398 3.331506 9.971983 -11.915052 
